<svg xmlns="http://www.w3.org/2000/svg" width="74.75" height="93.583" viewBox="0 0 74.75 93.583">
  <defs>
    <style>
      .cls-1 {
        stroke: #000;
        stroke-width: 1.5px;
      }
    </style>
  </defs>
  <g id="groceries" transform="translate(-51.568 0.769)">
    <path id="Path_1255" data-name="Path 1255" class="cls-1" d="M124.216,284.814a1.351,1.351,0,0,0-1.351,1.351v33.727a3.074,3.074,0,0,1-3.071,3.071h-61.7a3.074,3.074,0,0,1-3.071-3.071V308.446a1.351,1.351,0,1,0-2.7,0v11.446a5.78,5.78,0,0,0,5.773,5.773h61.7a5.78,5.78,0,0,0,5.773-5.773V286.165A1.351,1.351,0,0,0,124.216,284.814Z" transform="translate(0 -233.601)"/>
    <path id="Path_1256" data-name="Path 1256" class="cls-1" d="M123.965,33.693a2.461,2.461,0,0,0-2.738.681l-.053.06V23.228a1.366,1.366,0,0,0-.01-.154,1.4,1.4,0,0,0-.165-.51L114.93,11.821V7.575a3.374,3.374,0,0,0-3.454-3.28H90.89a3.374,3.374,0,0,0-3.453,3.28v4.246L81.368,22.563a1.388,1.388,0,0,0-.175.665v.754A68.7,68.7,0,0,0,74.083,8.663c-4.159-6.4-8.554-9.42-12.375-8.5-2.524.606-5.788,3.151-7,11.829a1.351,1.351,0,0,0,2.677.373c.768-5.513,2.573-9,4.952-9.574,2.549-.612,6.091,2.134,9.478,7.346,3.742,5.758,6.986,13.858,9.136,22.808.027.112.053.225.08.338a4.352,4.352,0,0,0-2.375,1.373l-2.575,2.9a1.647,1.647,0,0,1-2.463,0l-2.575-2.9a4.349,4.349,0,0,0-6.507,0l-2.575,2.9a1.646,1.646,0,0,1-2.463,0l-.241-.271A81.562,81.562,0,0,1,56.989,17.6a1.351,1.351,0,0,0-1.322-1.38h-.03a1.351,1.351,0,0,0-1.35,1.322A80.045,80.045,0,0,0,55.75,33.7,2.485,2.485,0,0,0,52.32,36V69.44a1.351,1.351,0,0,0,2.7,0V36.582l2.455,2.768a4.349,4.349,0,0,0,6.507,0l2.575-2.9a1.647,1.647,0,0,1,2.463,0l2.575,2.9a4.349,4.349,0,0,0,6.507,0l2.575-2.9a1.647,1.647,0,0,1,2.463,0l2.574,2.9a4.349,4.349,0,0,0,6.507,0l2.574-2.9a1.647,1.647,0,0,1,2.463,0l2.574,2.9a4.349,4.349,0,0,0,6.507,0l2.575-2.9a1.647,1.647,0,0,1,2.463,0l2.566,2.893A4.351,4.351,0,0,0,117.2,40.8h.008a4.351,4.351,0,0,0,3.256-1.475l2.4-2.727V47.16a1.351,1.351,0,1,0,2.7,0V36.014A2.462,2.462,0,0,0,123.965,33.693ZM90.139,7.575A.691.691,0,0,1,90.89,7h20.586a.691.691,0,0,1,.751.578v3.25H90.139Zm-.563,5.952H112.79l4.717,8.349H84.86ZM117.2,38.1h0a1.625,1.625,0,0,1-1.232-.554L113.4,34.654a4.349,4.349,0,0,0-6.507,0l-2.575,2.9a1.647,1.647,0,0,1-2.463,0l-2.574-2.9a4.349,4.349,0,0,0-6.507,0l-2.574,2.9a1.647,1.647,0,0,1-2.463,0l-2.574-2.9a4.347,4.347,0,0,0-1.268-.983V24.58h34.576V37.5l-.035.04a1.626,1.626,0,0,1-1.233.558Z" transform="translate(-0.002 0)"/>
    <path id="Path_1257" data-name="Path 1257" class="cls-1" d="M106.5,70.242l-6.167,1.481a1.351,1.351,0,1,0,.631,2.628l6.167-1.481a1.351,1.351,0,0,0-.631-2.628Z" transform="translate(-38.534 -57.581)"/>
    <path id="Path_1258" data-name="Path 1258" class="cls-1" d="M112.387,108.559l-8.216,1.973a1.351,1.351,0,1,0,.631,2.628l8.216-1.973a1.351,1.351,0,0,0-.631-2.628Z" transform="translate(-41.68 -89.008)"/>
    <path id="Path_1259" data-name="Path 1259" class="cls-1" d="M112.7,151.847a1.35,1.35,0,0,0,1.629,1l8.216-1.973a1.351,1.351,0,0,0-.631-2.628l-8.216,1.973A1.351,1.351,0,0,0,112.7,151.847Z" transform="translate(-49.497 -121.557)"/>
  </g>
</svg>
