<svg id="menu_1_" data-name="menu (1)" xmlns="http://www.w3.org/2000/svg" width="82" height="82" viewBox="0 0 82 82">
  <defs>
    <style>
      .cls-1 {
        fill: #18582e;
      }
    </style>
  </defs>
  <path id="Path_1187" data-name="Path 1187" class="cls-1" d="M27.867,38.438H10.57A10.582,10.582,0,0,1,0,27.867V10.57A10.582,10.582,0,0,1,10.57,0h17.3a10.582,10.582,0,0,1,10.57,10.57v17.3A10.582,10.582,0,0,1,27.867,38.438ZM10.57,5.125A5.451,5.451,0,0,0,5.125,10.57v17.3a5.451,5.451,0,0,0,5.445,5.445h17.3a5.451,5.451,0,0,0,5.445-5.445V10.57a5.451,5.451,0,0,0-5.445-5.445Z"/>
  <path id="Path_1188" data-name="Path 1188" class="cls-1" d="M299.867,38.438h-17.3A10.582,10.582,0,0,1,272,27.867V10.57A10.582,10.582,0,0,1,282.57,0h17.3a10.582,10.582,0,0,1,10.57,10.57v17.3A10.582,10.582,0,0,1,299.867,38.438ZM282.57,5.125a5.451,5.451,0,0,0-5.445,5.445v17.3a5.451,5.451,0,0,0,5.445,5.445h17.3a5.451,5.451,0,0,0,5.445-5.445V10.57a5.451,5.451,0,0,0-5.445-5.445Z" transform="translate(-228.438)"/>
  <path id="Path_1189" data-name="Path 1189" class="cls-1" d="M291.219,310.438a19.219,19.219,0,1,1,19.219-19.219A19.241,19.241,0,0,1,291.219,310.438Zm0-33.312a14.094,14.094,0,1,0,14.094,14.094A14.11,14.11,0,0,0,291.219,277.125Z" transform="translate(-228.438 -228.438)"/>
  <path id="Path_1190" data-name="Path 1190" class="cls-1" d="M27.867,310.438H10.57A10.582,10.582,0,0,1,0,299.867v-17.3A10.582,10.582,0,0,1,10.57,272h17.3a10.582,10.582,0,0,1,10.57,10.57v17.3A10.582,10.582,0,0,1,27.867,310.438Zm-17.3-33.312a5.451,5.451,0,0,0-5.445,5.445v17.3a5.451,5.451,0,0,0,5.445,5.445h17.3a5.451,5.451,0,0,0,5.445-5.445v-17.3a5.451,5.451,0,0,0-5.445-5.445Z" transform="translate(0 -228.438)"/>
</svg>
