<svg xmlns="http://www.w3.org/2000/svg" width="47.571" height="45.741" viewBox="0 0 47.571 45.741">
  <defs>
    <style>
      .cls-1 {
        fill: #fff;
      }

      .cls-2 {
        fill: none;
        stroke: #fff;
        stroke-width: 3px;
      }
    </style>
  </defs>
  <g id="Group_1538" data-name="Group 1538" transform="translate(-1124.439 -144.307)">
    <g id="chat_1_" data-name="chat (1)" transform="translate(1124.439 144.307)">
      <g id="Group_1537" data-name="Group 1537">
        <g id="Group_1536" data-name="Group 1536">
          <path id="Path_180" data-name="Path 180" class="cls-1" d="M40.252,0H7.319A7.326,7.326,0,0,0,0,7.319V43.911a1.828,1.828,0,0,0,1.054,1.658,1.856,1.856,0,0,0,.776.172A1.829,1.829,0,0,0,3,45.316L13.47,36.593H40.252a7.326,7.326,0,0,0,7.319-7.319V7.319A7.326,7.326,0,0,0,40.252,0Zm3.659,29.274a3.663,3.663,0,0,1-3.659,3.659H12.807a1.828,1.828,0,0,0-1.171.424L3.659,40.007V7.319A3.663,3.663,0,0,1,7.319,3.659H40.252a3.663,3.663,0,0,1,3.659,3.659Z"/>
        </g>
      </g>
    </g>
    <line id="Line_6" data-name="Line 6" class="cls-2" x2="26.357" transform="translate(1135.046 160.325)"/>
    <line id="Line_7" data-name="Line 7" class="cls-2" x2="16.869" transform="translate(1135.046 166.651)"/>
  </g>
</svg>
