<svg xmlns="http://www.w3.org/2000/svg" width="76.07" height="95.61" viewBox="0 0 76.07 95.61">
  <g id="Group_2505" data-name="Group 2505" transform="translate(-52.318 0)">
    <path id="Path_1260" data-name="Path 1260" d="M276.168,27.294a3.5,3.5,0,0,0-3.586-3.406H251.2a3.5,3.5,0,0,0-3.586,3.406v2.58h28.552Z" transform="translate(-158.829 -19.427)"/>
    <path id="Path_1261" data-name="Path 1261" d="M254.524,77.306l-6.25-11.062H219.616l-6.25,11.062a1.439,1.439,0,0,0-.114.273H254.64A1.4,1.4,0,0,0,254.524,77.306Z" transform="translate(-130.882 -53.874)"/>
    <line id="Line_43" data-name="Line 43" y1="7.221" x2="0.622" transform="translate(54.313 11.319)"/>
    <g id="Group_2504" data-name="Group 2504" transform="translate(52.318 0)">
      <path id="Path_1262" data-name="Path 1262" d="M63.171,19.666c0,.143,0,.285,0,.429q.006.71.026,1.433a87.762,87.762,0,0,0,1.493,13.406l.012,0,3.643,3.721.25.282a1.71,1.71,0,0,0,2.558,0l2.674-3.014a4.516,4.516,0,0,1,6.758,0l2.674,3.014a1.71,1.71,0,0,0,2.558,0l2.674-3.014A4.52,4.52,0,0,1,90.958,34.5a5.568,5.568,0,0,1,2.974.369v.036a4.514,4.514,0,0,1,1.317,1.021l2.674,3.014a1.71,1.71,0,0,0,2.558,0l2.674-3.014a4.516,4.516,0,0,1,6.758,0l2.674,3.014a1.71,1.71,0,0,0,2.558,0l2.674-3.014a4.516,4.516,0,0,1,6.758,0l2.665,3a1.688,1.688,0,0,0,1.279.575h0a1.689,1.689,0,0,0,1.28-.58l.036-.041v-.159l2.806-3.031v0h0V25.628H91.084v-.846A71.187,71.187,0,0,0,83.741,9C79.422,2.35,74.858-.786,70.89.168c-2.406.578-5.456,2.854-6.913,10.187h0a49.366,49.366,0,0,0-.809,9.306ZM83.71,28.751a1.4,1.4,0,0,1-1.037,1.692l-8.532,2.049a1.4,1.4,0,0,1-.655-2.729l8.532-2.049A1.4,1.4,0,0,1,83.71,28.751ZM80.238,20.3a1.4,1.4,0,0,1,.655,2.729l-8.532,2.049a1.4,1.4,0,0,1-.655-2.729ZM70.99,14.687l6.4-1.538a1.4,1.4,0,0,1,.655,2.729l-6.4,1.538a1.4,1.4,0,0,1-.655-2.729Z" transform="translate(-61.14 0)"/>
      <path id="Path_1263" data-name="Path 1263" d="M127.92,192.317l-2.338,2.083v-.047l-.193.22-.4.352-.013.112-1.892,2.149a4.518,4.518,0,0,1-3.381,1.532H119.7a4.518,4.518,0,0,1-3.379-1.519l-2.665-3a1.71,1.71,0,0,0-2.558,0l-2.674,3.014a4.516,4.516,0,0,1-6.758,0l-2.674-3.014a1.71,1.71,0,0,0-2.558,0l-2.674,3.014a4.516,4.516,0,0,1-6.758,0l-2.674-3.014a1.71,1.71,0,0,0-2.558,0L79.1,197.207a4.516,4.516,0,0,1-6.758,0l-2.674-3.014a1.71,1.71,0,0,0-2.558,0l-2.674,3.014a4.516,4.516,0,0,1-6.758,0l-2.55-2.874v.458l-2.58-2.064a2.586,2.586,0,0,0-.227,1.062v40.336s0,0,0,.007v11.887a6,6,0,0,0,6,6h64.079a6,6,0,0,0,6-6V214.294s0-.007,0-.011V193.8A2.571,2.571,0,0,0,127.92,192.317Z" transform="translate(-52.318 -156.404)"/>
    </g>
  </g>
</svg>
